<svg width="512" height="512" viewBox="0 0 512 512" fill="none" xmlns="http://www.w3.org/2000/svg">
  <rect width="512" height="512" fill="#0A3D62"/>
  <path d="M256 100L240 120C240 120 220 110 200 130C180 150 190 180 190 180L210 170L230 200V180H210V160L256 120L302 160V180H282V200L302 170L322 180C322 180 332 150 312 130C292 110 272 120 272 120L256 100Z" fill="#F9FDFD"/>
  <path d="M120 200C120 200 130 180 160 180C190 180 200 210 200 240V380L180 400L210 420L256 360L302 420L332 400L312 380V240C312 210 322 180 352 180C382 180 392 200 392 200V360C392 360 402 380 432 380H452V400H392V230C392 230 382 210 352 210C322 210 312 230 312 230V360L256 320L200 360V230C200 230 190 210 160 210C130 210 120 230 120 230V380H60V360H80C110 360 120 340 120 340V200Z" fill="#F9FDFD"/>
  <path d="M256 110V330" stroke="#F9FDFD" stroke-width="20" stroke-linecap="round"/>
</svg>
