<svg width="512" height="512" viewBox="0 0 512 512" fill="none" xmlns="http://www.w3.org/2000/svg">
  <rect width="512" height="512" fill="#0A3D62"/>
  <path d="M256 70L240 90C230 80 210 80 200 100C190 120 200 140 200 140L220 130L235 150V130H215V115L256 90L297 115V130H277V150L292 130L312 140C312 140 322 120 312 100C302 80 282 80 272 90L256 70Z" fill="#F9FDFD"/>
  <path d="M140 180C140 180 150 160 180 160C210 160 220 190 220 220V340L200 360L230 380L256 320L282 380L312 360L292 340V220C292 190 302 160 332 160C362 160 372 180 372 180V320C372 320 382 340 412 340H432V360H372V210C372 210 362 190 332 190C302 190 292 210 292 210V340L256 300L220 340V210C220 210 210 190 180 190C150 190 140 210 140 210V340H80V320H100C130 320 140 300 140 300V180Z" fill="#F9FDFD"/>
  <path d="M256 80V300" stroke="#F9FDFD" stroke-width="24" stroke-linecap="round"/>
</svg>
